<svg xmlns="http://www.w3.org/2000/svg" xmlns:xlink="http://www.w3.org/1999/xlink" width="400" height="400" viewBox="0 0 400 400"><defs><linearGradient id="a" x1="0.5" x2="0.5" y2="1" gradientUnits="objectBoundingBox"><stop offset="0" stop-color="#14b7f7"/><stop offset="1" stop-color="#1b77e9"/></linearGradient></defs><path d="M357.143,32H42.857A42.868,42.868,0,0,0,0,74.857V389.143A42.868,42.868,0,0,0,42.857,432H357.143A42.868,42.868,0,0,0,400,389.143V74.857A42.868,42.868,0,0,0,357.143,32ZM113.393,346.732A17.841,17.841,0,0,1,82.5,328.875l12.768-22.054Q116.83,300.259,130.625,317Zm124.018-48.125H75a17.857,17.857,0,0,1,0-35.714h45.536l58.393-101.071-18.3-31.607a17.841,17.841,0,1,1,30.893-17.857l7.946,13.75,7.946-13.75A17.841,17.841,0,1,1,238.3,130.214L161.7,262.893h55.446c18.036,0,28.125,21.161,20.268,35.714Zm87.589,0H299.107l17.5,30.268a17.841,17.841,0,1,1-30.893,17.857q-44.062-76.205-66.071-114.375c-14.911-25.893-4.286-51.786,6.339-60.536q17.545,30.4,52.589,91.071H325a17.857,17.857,0,0,1,0,35.714Z" transform="translate(0 -32)" fill="url(#a)"/></svg>