<svg xmlns="http://www.w3.org/2000/svg" width="67.486" height="67.486" viewBox="0 0 67.486 67.486"><g transform="translate(0)"><path d="M33.743,0A33.743,33.743,0,1,1,0,33.743,33.741,33.741,0,0,1,33.743,0Z" transform="translate(0 0)" fill="#d8dbe2" fill-rule="evenodd"/><path d="M527.015,738.946l.024,8.922,7.581,4.461v5.224L522.6,750.5V736.337l4.413,2.609Zm0-8.922v5.2l-4.415-2.612v-5.2l4.415-2.612,4.437,2.612-4.437,2.612Zm10.772-2.612L542.2,724.8l4.437,2.612-4.437,2.612-4.415-2.612Z" transform="translate(-508.47 -705.203)" fill="#fff"/><path d="M803.9,746.019V740.8l4.415,2.612v5.2l-4.415-2.588Zm7.581,8.182,4.415,2.612,4.437-2.612v5.2l-4.437,2.612-4.415-2.612v-5.2Zm15.184-26.789,4.415-2.612,4.437,2.612v5.2l-4.437,2.612v-5.2l-4.415-2.612Zm4.415,20.457.024-8.922,4.415-2.612V750.5L823.5,757.551v-5.224l7.579-4.459Z" transform="translate(-782.164 -705.203)" fill="#fff"/><path d="M1533.215,1321.624l-4.415,2.587v-5.2l4.415-2.612Z" transform="translate(-1487.465 -1280.807)" fill="#fff"/><path d="M827.915,410.893l.024,5.224-7.6,4.461v8.944l-4.415,2.587-4.415-2.587v-8.944l-7.6-4.461v-5.224l4.434-2.612,7.557,4.483,7.6-4.483,4.437,2.612Zm-24.015-8.92,12-7.073,12.018,7.073-4.415,2.612-7.6-4.483-7.581,4.483-4.415-2.612Z" transform="translate(-782.164 -384.223)" fill="#fff"/></g></svg>