<svg xmlns="http://www.w3.org/2000/svg" width="19.688" height="15" viewBox="0 0 19.688 15"><path d="M42.692,33.266a.05.05,0,0,0-.026-.023A16.241,16.241,0,0,0,38.659,32a.061.061,0,0,0-.064.03,11.3,11.3,0,0,0-.5,1.025,15,15,0,0,0-4.5,0,10.364,10.364,0,0,0-.507-1.025.063.063,0,0,0-.064-.03,16.2,16.2,0,0,0-4.007,1.242.057.057,0,0,0-.026.023,16.6,16.6,0,0,0-2.909,11.2.068.068,0,0,0,.026.046A16.328,16.328,0,0,0,31.023,47a.064.064,0,0,0,.069-.023A11.659,11.659,0,0,0,32.1,45.339a.062.062,0,0,0-.034-.087,10.754,10.754,0,0,1-1.536-.732.063.063,0,0,1-.006-.1c.1-.077.206-.158.3-.239a.061.061,0,0,1,.064-.009,11.647,11.647,0,0,0,9.894,0,.061.061,0,0,1,.064.008c.1.081.2.162.306.24a.063.063,0,0,1-.005.1,10.092,10.092,0,0,1-1.536.731.063.063,0,0,0-.033.087,13.093,13.093,0,0,0,1,1.634.062.062,0,0,0,.069.023,16.274,16.274,0,0,0,4.924-2.484.063.063,0,0,0,.026-.045A16.494,16.494,0,0,0,42.692,33.266ZM32.579,42.231a2,2,0,0,1,0-3.967,2,2,0,0,1,0,3.967Zm6.542,0a2,2,0,0,1,0-3.967,2,2,0,0,1,0,3.967Z" transform="translate(-26 -32)" fill="#e6e9f0"/></svg>