<svg xmlns="http://www.w3.org/2000/svg" width="15" height="15" viewBox="0 0 15 15"><path d="M13.929,32H1.068A1.076,1.076,0,0,0,0,33.081V45.919A1.076,1.076,0,0,0,1.068,47h12.86A1.079,1.079,0,0,0,15,45.919V33.081A1.079,1.079,0,0,0,13.929,32Zm-9.4,12.857H2.31V37.7H4.537v7.158ZM3.422,36.721a1.289,1.289,0,1,1,1.289-1.289A1.29,1.29,0,0,1,3.422,36.721Zm9.445,8.136H10.644V41.375c0-.83-.017-1.9-1.155-1.9-1.158,0-1.336.9-1.336,1.838v3.542H5.93V37.7H8.063v.978h.03A2.342,2.342,0,0,1,10.2,37.521c2.25,0,2.669,1.483,2.669,3.412Z" transform="translate(0 -32)" fill="#e6e9f0"/></svg>