<svg xmlns="http://www.w3.org/2000/svg" width="479" height="448" viewBox="0 0 479 448"><g transform="translate(-5311 -594)"><g transform="translate(4524 125)"><rect width="479" height="448" transform="translate(787 469)" fill="none"/></g><path d="M194.769,107.878c.875.437,1.575,1.487,2.625,1.487.962,0,2.45-.35,2.537-1.312.175-1.225-1.662-2.012-2.8-2.537a5.783,5.783,0,0,0-4.812-.087c-.35.175-.7.612-.525.962.262,1.137,2.012.962,2.975,1.487Zm-19.161,1.487c1.05,0,1.75-1.05,2.625-1.487.962-.525,2.712-.35,3.062-1.4.175-.35-.175-.787-.525-.962a5.783,5.783,0,0,0-4.812.087c-1.137.525-2.975,1.312-2.8,2.537.087.875,1.575,1.312,2.45,1.225ZM369.055,353.3c-3.15-3.5-4.637-10.149-6.3-17.236-1.575-7.087-3.412-14.7-9.187-19.6a23.648,23.648,0,0,0-3.5-2.537,19.412,19.412,0,0,0-3.587-1.75c8.049-23.885,4.9-47.684-3.237-69.207-9.974-26.335-27.385-49.346-40.684-65.095-14.961-18.811-29.485-36.659-29.223-62.995C273.775,74.719,277.8.087,207.018,0c-89.593-.175-67.194,90.467-68.157,118.29-1.487,20.473-5.6,36.572-19.686,56.608-16.536,19.686-39.809,51.446-50.833,84.605-5.25,15.661-7.7,31.585-5.425,46.634C57.231,311.212,52.943,319,48.394,323.81c-3.675,3.762-9.012,5.162-14.874,7.262s-12.249,5.25-16.186,12.686a22.409,22.409,0,0,0-2.45,10.849,68.83,68.83,0,0,0,1.05,10.324c1.05,7.087,2.187,13.736.7,18.2-4.55,12.6-5.162,21.348-1.925,27.735,3.325,6.387,9.974,9.187,17.586,10.762,15.136,3.15,35.7,2.362,51.883,10.937,17.324,9.1,34.91,12.336,48.908,9.1,10.149-2.275,18.461-8.4,22.661-17.674,10.937-.087,23.011-4.725,42.259-5.775,13.036-1.05,29.4,4.637,48.208,3.587a27.792,27.792,0,0,0,2.187,5.862v.087c7.262,14.611,20.823,21.261,35.26,20.123,14.524-1.137,29.835-9.624,42.259-24.41,11.9-14.349,31.5-20.3,44.534-28.173,6.474-3.937,11.724-8.837,12.161-16.011.35-7.174-3.85-15.136-13.561-25.985ZM197.306,76.381c8.574-19.423,29.923-19.073,38.5-.35,5.687,12.424,3.15,27.035-3.762,35.347a108.2,108.2,0,0,0-11.024-4.287c.962-1.05,2.712-2.362,3.412-4.025,4.2-10.324-.175-23.623-7.962-23.886-6.387-.437-12.161,9.449-10.324,20.123a62.327,62.327,0,0,0-11.374-3.85A34.854,34.854,0,0,1,197.306,76.381ZM161.7,66.319c8.837,0,18.2,12.424,16.711,29.31a31.474,31.474,0,0,0-8.924,4.025c1.05-7.787-2.887-17.586-8.4-17.149-7.349.612-8.574,18.548-1.575,24.585.875.7,1.662-.175-5.162,4.812C140.7,99.129,145.161,66.319,161.7,66.319Zm-11.9,53.108c5.425-4.025,11.9-8.749,12.336-9.187,4.112-3.85,11.812-12.424,24.41-12.424,6.212,0,13.649,2.012,22.661,7.787,5.512,3.587,9.887,3.85,19.773,8.137,7.349,3.062,11.987,8.487,9.187,15.924-2.275,6.212-9.624,12.6-19.861,15.836-9.712,3.15-17.324,14-33.422,13.036a24.37,24.37,0,0,1-8.4-1.837c-7-3.062-10.674-9.1-17.5-13.124-7.524-4.2-11.549-9.1-12.861-13.386q-1.837-6.431,3.675-10.762Zm2.887,292.226c-2.362,30.71-38.409,30.1-65.882,15.749-26.16-13.824-60.02-5.687-66.932-19.161-2.1-4.112-2.1-11.112,2.275-23.1v-.175c2.1-6.649.525-14-.525-20.911-1.05-6.824-1.575-13.124.787-17.5,3.062-5.862,7.437-7.962,12.949-9.887,9.012-3.237,10.324-2.975,17.149-8.662,4.812-4.987,8.312-11.287,12.511-15.749,4.462-4.812,8.749-7.087,15.486-6.037,7.087,1.05,13.211,5.949,19.161,14l17.149,31.147c8.312,17.411,37.709,42.346,35.872,60.282Zm-1.225-22.661a187.793,187.793,0,0,0-12.6-17.149c6.212,0,12.424-1.925,14.611-7.787,2.012-5.425,0-13.036-6.474-21.786-11.812-15.924-33.51-28.435-33.51-28.435-11.812-7.349-18.461-16.361-21.523-26.16s-2.625-20.386-.262-30.8c4.55-20.036,16.274-39.547,23.8-51.8,2.012-1.487.7,2.8-7.612,18.2-7.437,14.086-21.348,46.634-2.275,72.094a151.1,151.1,0,0,1,12.074-53.808c10.5-23.973,32.635-65.532,34.385-98.6.962.7,4.025,2.8,5.425,3.587,4.025,2.362,7.087,5.862,11.024,9.012,10.849,8.749,24.935,8.049,37.1,1.05,5.425-3.062,9.8-6.562,13.911-7.874,8.662-2.712,15.574-7.524,19.511-13.124,6.737,26.6,22.486,65.007,32.547,83.731,5.337,9.974,16.011,31.06,20.648,56.52a34.793,34.793,0,0,1,9.537,1.225c12.074-31.235-10.237-64.92-20.386-74.281-4.112-4.025-4.287-5.775-2.275-5.687,11.024,9.8,25.548,29.485,30.8,51.621a66.1,66.1,0,0,1,.35,31.235c14.349,5.949,31.41,15.661,26.86,30.447-1.925-.087-2.8,0-3.675,0,2.8-8.837-3.412-15.4-19.948-22.836-17.149-7.524-31.5-7.524-33.51,10.937-10.587,3.675-16.011,12.861-18.723,23.885-2.45,9.8-3.15,21.611-3.85,34.91-.437,6.737-3.15,15.749-5.949,25.373-28.085,20.036-67.107,28.785-100,6.3Zm225.206-10.062c-.787,14.7-36.047,17.411-55.3,40.684-11.549,13.736-25.723,21.348-38.147,22.311s-23.186-4.2-29.485-16.886c-4.112-9.712-2.1-20.211.962-31.76,3.237-12.424,8.049-25.2,8.662-35.522.7-13.3,1.487-24.935,3.675-33.86,2.275-9.012,5.775-15.049,11.987-18.461.262-.175.612-.262.875-.437.7,11.549,6.387,23.273,16.449,25.81,11.024,2.887,26.86-6.562,33.6-14.261,7.874-.262,13.736-.787,19.773,4.462,8.662,7.437,6.212,26.51,14.961,36.4,9.274,10.149,12.249,17.061,11.987,21.523ZM153.21,130.1c1.75,1.662,4.112,3.937,7,6.212,5.775,4.55,13.824,9.274,23.886,9.274,10.149,0,19.686-5.162,27.823-9.449a77.8,77.8,0,0,0,12.949-9.1c3.412-2.975,5.162-5.512,2.712-5.775s-2.275,2.275-5.25,4.462c-3.85,2.8-8.487,6.474-12.161,8.574-6.474,3.675-17.061,8.924-26.16,8.924s-16.361-4.2-21.786-8.487c-2.712-2.187-4.987-4.375-6.737-6.037-1.312-1.225-1.662-4.025-3.762-4.287-1.225-.087-1.575,3.237,1.487,5.687Z" transform="translate(5353.326 594)"/></g></svg>