<svg xmlns="http://www.w3.org/2000/svg" width="61.016" height="53.688" viewBox="0 0 61.016 53.688"><g transform="translate(0 0.1)"><path d="M46.2,16.309a4.059,4.059,0,0,0-3.823,0l-8.921,5.257L27.4,24.912l-8.762,5.257a4.059,4.059,0,0,1-3.823,0l-6.85-4.142a3.883,3.883,0,0,1-1.912-3.346V14.716A3.929,3.929,0,0,1,7.966,11.37l6.85-3.983a4.059,4.059,0,0,1,3.823,0l6.85,4.142A3.883,3.883,0,0,1,27.4,14.875v5.257l6.054-3.5V11.211a3.929,3.929,0,0,0-1.912-3.346L18.8.378a4.059,4.059,0,0,0-3.823,0L1.912,8.025A3.5,3.5,0,0,0,0,11.211V26.186a3.929,3.929,0,0,0,1.912,3.346l12.9,7.488a4.059,4.059,0,0,0,3.823,0l8.762-5.1,6.054-3.5,8.762-5.1a4.059,4.059,0,0,1,3.823,0l6.85,3.983A3.883,3.883,0,0,1,54.8,30.647v7.966a3.929,3.929,0,0,1-1.912,3.346L46.2,45.941a4.059,4.059,0,0,1-3.823,0l-6.85-3.983a3.883,3.883,0,0,1-1.912-3.346v-5.1l-6.054,3.5v5.257a3.929,3.929,0,0,0,1.912,3.346l12.9,7.488a4.059,4.059,0,0,0,3.823,0l12.9-7.488a3.883,3.883,0,0,0,1.912-3.346V27.142A3.929,3.929,0,0,0,59.1,23.8Z" transform="translate(0)" fill="#d8dbe2"/></g></svg>