<svg xmlns="http://www.w3.org/2000/svg" width="66.635" height="57.543" viewBox="0 0 66.635 57.543"><g transform="translate(-25.54 -24.243)"><path d="M25.54,81.786V44.409c.374.269,10.062,8.272,11.5,9.433a.523.523,0,0,0,.807-.059c1.178-1.221,27.706-28.326,28.575-29.235.433-.453.62-.425,1.3.244,1.059,1.039,6.092,6.225,6.828,6.978Q50.092,56.718,25.54,81.786Z" transform="translate(0 0)" fill="#d8dbe2"/><path d="M139.842,26.77c0,12.535-.062,25.123-.062,37.6-.374-.269-8.793-9.618-10.229-10.779a.523.523,0,0,0-.807.059c-1.178,1.221-27.706,28.326-28.575,29.235-.433.453-.62.425-1.3-.244-1.059-1.039-6.092-6.225-6.828-6.978C108.341,59.03,123.441,43.507,139.842,26.77Z" transform="translate(-47.667 -1.811)" fill="#d8dbe2"/></g></svg>