<svg xmlns="http://www.w3.org/2000/svg" width="15" height="15" viewBox="0 0 15 15"><path d="M7.5,8A7.5,7.5,0,1,0,15,15.5,7.5,7.5,0,0,0,7.5,8Zm3.476,5.1c-.113,1.186-.6,4.064-.85,5.392-.105.562-.312.75-.513.769-.435.04-.766-.288-1.188-.564-.66-.433-1.033-.7-1.674-1.124-.74-.488-.26-.756.162-1.195.11-.115,2.029-1.86,2.067-2.019a.153.153,0,0,0-.035-.133.173.173,0,0,0-.155-.015q-.1.023-3.164,2.091a1.424,1.424,0,0,1-.813.3,5.351,5.351,0,0,1-1.166-.276c-.47-.153-.843-.233-.81-.493q.025-.2.558-.414,3.28-1.429,4.374-1.884a11.651,11.651,0,0,1,2.8-1.022.494.494,0,0,1,.291.087.316.316,0,0,1,.107.2A1.323,1.323,0,0,1,10.976,13.1Z" transform="translate(0 -8)" fill="#e6e9f0"/></svg>