<svg xmlns="http://www.w3.org/2000/svg" width="19.603" height="24.077" viewBox="0 0 19.603 24.077"><path d="M18.977,8.209A5.453,5.453,0,0,0,16.372,12.8,5.309,5.309,0,0,0,19.6,17.665a12.627,12.627,0,0,1-1.654,3.417c-1.031,1.483-2.107,2.964-3.744,2.964s-2.059-.951-3.949-.951c-1.842,0-2.5.982-3.995.982S3.718,22.7,2.516,21.019A14.748,14.748,0,0,1,0,13.046C0,8.365,3.044,5.883,6.039,5.883c1.592,0,2.918,1.045,3.918,1.045.951,0,2.434-1.108,4.245-1.108A5.677,5.677,0,0,1,18.977,8.209Zm-5.635-4.37A5.376,5.376,0,0,0,14.621.484,2.312,2.312,0,0,0,14.575,0a5.386,5.386,0,0,0-3.542,1.825A5.235,5.235,0,0,0,9.706,5.088a2.211,2.211,0,0,0,.046.436,1.884,1.884,0,0,0,.327.031,4.667,4.667,0,0,0,3.263-1.717Z" fill="#E6E9F0"/></svg>