<svg xmlns="http://www.w3.org/2000/svg" width="191.336" height="52.638" viewBox="0 0 191.336 52.638"><g transform="translate(-31.1 -73.1)"><path d="M57.35,73.1A26.319,26.319,0,1,1,31.1,99.418,26.292,26.292,0,0,1,57.35,73.1Zm-20,40.062a1.023,1.023,0,0,0,.275.618,21.823,21.823,0,0,0,3.573,3.986,21.384,21.384,0,0,0,1.924,1.58,28.645,28.645,0,0,0,6.116,3.161,25.6,25.6,0,0,0,5.5,1.306,18.828,18.828,0,0,0,4.4,0,11.055,11.055,0,0,0,2.543-.481c.137.069.206-.069.275-.069a22.146,22.146,0,0,0,5.016-1.512A24.288,24.288,0,0,0,81.332,95.845a23.179,23.179,0,0,0-6.047-12.713,23.271,23.271,0,0,0-16.7-8.04,22.193,22.193,0,0,0-8.727,1.168,24.49,24.49,0,0,0-16.9,22.677,20.123,20.123,0,0,0,.275,4.054,23.186,23.186,0,0,0,3.024,8.727C36.666,112.131,36.941,112.681,37.353,113.162Z" transform="translate(0 0)" fill="#aaadc0" fill-rule="evenodd"/><path d="M64.526,129.076a6.672,6.672,0,0,1-2.543.481,18.828,18.828,0,0,1-4.4,0,25.6,25.6,0,0,1-5.5-1.306,28.645,28.645,0,0,1-6.116-3.161,21.385,21.385,0,0,1-1.924-1.58,21.823,21.823,0,0,1-3.573-3.986,1.235,1.235,0,0,1-.275-.618,35.65,35.65,0,0,0,2.611-11.613,50.868,50.868,0,0,1,.55-5.566,10.727,10.727,0,0,1,2.68-5.7,12.833,12.833,0,0,1,4.948-3.092,14.194,14.194,0,0,1,4.81-1.237,17.2,17.2,0,0,1,4.6.481,33.165,33.165,0,0,1,6.666,2.268c1.718.687,3.5,1.374,5.291,1.924A16.6,16.6,0,0,1,77.651,98.7a4.565,4.565,0,0,1,1.649,5.772,11.436,11.436,0,0,1-2.611,3.642c-1.855,1.924-3.848,3.711-5.635,5.7a32.758,32.758,0,0,0-5.222,7.765,12.923,12.923,0,0,0-1.306,7.49Zm13.262-22.608a.252.252,0,0,0-.206.069.148.148,0,0,0-.137.137v.069a.148.148,0,0,0,.137-.137l.206-.137ZM56.761,94.511a4.707,4.707,0,1,0-.069,9.414,4.8,4.8,0,0,0,4.741-4.741,4.634,4.634,0,0,0-4.673-4.673Zm3.848,14.431a3.879,3.879,0,0,0,2.062,1.443,10.173,10.173,0,0,0,5.36.275,23.892,23.892,0,0,0,8.8-3.5c.137-.137.412-.137.481-.412-.137-.069-.206,0-.275.069a21.347,21.347,0,0,1-2.817,1.374,23.338,23.338,0,0,1-7.834,1.855A9.416,9.416,0,0,1,60.609,108.942ZM73.6,104.888a1.072,1.072,0,0,0,1.031-1.1.978.978,0,0,0-1.1-.962,1,1,0,0,0-.962,1.031A.974.974,0,0,0,73.6,104.888Z" transform="translate(-2.847 -5.813)" fill="#a9acbf" fill-rule="evenodd"/><path d="M58.324,87.2a20.539,20.539,0,0,0-4.6-.481,14.617,14.617,0,0,0-4.81,1.237,12.833,12.833,0,0,0-4.948,3.092,10.273,10.273,0,0,0-2.68,5.7c-.275,1.855-.344,3.711-.55,5.566a35.257,35.257,0,0,1-2.611,11.613,5.375,5.375,0,0,1-1.031-1.512,23.186,23.186,0,0,1-3.024-8.727,20.123,20.123,0,0,1-.275-4.054A24.258,24.258,0,0,1,39.22,84.859a23.931,23.931,0,0,1,11.476-7.9,25.046,25.046,0,0,1,8.727-1.168A24.332,24.332,0,0,1,79.832,111.04a23.594,23.594,0,0,1-12.025,11.338,20.225,20.225,0,0,1-5.016,1.512c-.137,0-.206.206-.275.069a13.455,13.455,0,0,1,1.237-7.49,32.758,32.758,0,0,1,5.222-7.765c1.718-1.993,3.711-3.848,5.635-5.7a10.468,10.468,0,0,0,2.611-3.642,4.421,4.421,0,0,0-1.649-5.772,16.6,16.6,0,0,0-5.291-2.336c-1.787-.55-3.573-1.237-5.291-1.924a3.506,3.506,0,0,0-2.268-2.336A8.732,8.732,0,0,0,58.324,87.2Zm22.47,14.637h.137a11.026,11.026,0,0,0,.275-3.024,20.184,20.184,0,0,0-.344-3.5,19.694,19.694,0,0,0-5.154-9.9,58,58,0,0,0-5.36-4.673,14.262,14.262,0,0,0-5.5-2.955,14.623,14.623,0,0,0-5.978-.412c-.137,0-.275,0-.275.137s.137.137.275.137A47.33,47.33,0,0,1,67.6,80.255a14.456,14.456,0,0,1,6.8,5.154,38.608,38.608,0,0,1,3.161,5.429,37.886,37.886,0,0,1,2.611,8.04A28.533,28.533,0,0,1,80.794,101.832Z" transform="translate(-0.837 -0.833)" fill="#dadeef" fill-rule="evenodd"/><path d="M62.141,95.8a4.678,4.678,0,0,1,4.673,4.673h0a4.8,4.8,0,0,1-4.741,4.741,4.707,4.707,0,1,1,.069-9.414Zm3.3,4.741a3.3,3.3,0,1,0-3.367,3.3h.069a3.344,3.344,0,0,0,3.3-3.3Z" transform="translate(-8.227 -7.101)" fill="#fcfdfb" fill-rule="evenodd"/><path d="M69.775,109a9.971,9.971,0,0,0,5.772,1.168,21.8,21.8,0,0,0,7.834-1.855A21.347,21.347,0,0,0,86.2,106.94c.069-.069.137-.137.275-.069-.069.206-.275.275-.481.412a23.892,23.892,0,0,1-8.8,3.5,10.138,10.138,0,0,1-5.36-.275A4.061,4.061,0,0,1,69.775,109ZM69.5,92.235a6.882,6.882,0,0,1,4.4,0,3.506,3.506,0,0,1,2.268,2.336A27.386,27.386,0,0,0,69.5,92.235Z" transform="translate(-12.013 -5.873)" fill="#7e8295" fill-rule="evenodd"/><path d="M88.331,109.962a1.057,1.057,0,0,1-1.031-1.031,1,1,0,0,1,.962-1.031,1.032,1.032,0,1,1,.069,2.062Z" transform="translate(-17.581 -10.887)" fill="#fcfdfb" fill-rule="evenodd"/><path d="M94.537,113.337a.148.148,0,0,1-.137.137h0c0-.137.069-.206.137-.137Zm.206-.137-.206.137-.069-.069a.519.519,0,0,1,.275-.069Z" transform="translate(-19.802 -12.545)" fill="#a9acbf" fill-rule="evenodd"/><path d="M94.9,113.2Z" transform="translate(-19.959 -12.545)" fill="#a9acbf" fill-rule="evenodd"/><path d="M92.127,102.549c-.206-.962-.412-1.855-.55-2.817a39.3,39.3,0,0,0-2.611-8.04A28.68,28.68,0,0,0,85.8,86.263,14.13,14.13,0,0,0,79,81.11,43.891,43.891,0,0,0,70.275,78.5c-.137,0-.275,0-.275-.137s.137-.137.275-.137a13.6,13.6,0,0,1,5.978.412,15.241,15.241,0,0,1,5.5,2.955,58,58,0,0,1,5.36,4.673,19.694,19.694,0,0,1,5.154,9.9,20.184,20.184,0,0,1,.344,3.5,11.529,11.529,0,0,1-.275,3.024Z" transform="translate(-12.169 -1.55)" fill="#fffefc" fill-rule="evenodd"/><path d="M66.1,101.167a3.285,3.285,0,0,1-3.23,3.3H62.8a3.3,3.3,0,0,1-3.3-3.3V101.1a3.3,3.3,0,0,1,3.3-3.3,3.359,3.359,0,0,1,3.3,3.367Z" transform="translate(-8.884 -7.727)" fill="#7e8295" fill-rule="evenodd"/><path d="M189.164,114.358c-.069.069-.137.069-.206.137-2.13,2.405-4.81,2.817-7.7,2.062-3.573-.893-5.5-3.436-6.253-6.94a11.056,11.056,0,0,1,.55-6.666,8.475,8.475,0,0,1,9.208-5.291,8.083,8.083,0,0,1,4.879,2.268,6.666,6.666,0,0,1,1.718,3.642c.069.275-.069.344-.275.344h-2.543c-.206,0-.275-.069-.344-.275a4.011,4.011,0,0,0-3.436-3.23,5.009,5.009,0,0,0-5.222,1.649,8.044,8.044,0,0,0-1.581,5.291,8.982,8.982,0,0,0,.893,4.054,5.566,5.566,0,0,0,7.7,2.13,4.635,4.635,0,0,0,2.13-3.986c0-.344-.206-.275-.412-.275h-4.054c-.412,0-.481-.137-.481-.481v-1.58c0-.344.137-.412.412-.412h7.078c.275,0,.412.069.412.344v9c0,.275-.069.344-.344.344a4.315,4.315,0,0,1-1.649-.069c-.412-.275-.275-.962-.412-1.512C189.233,114.7,189.164,114.5,189.164,114.358ZM134.74,103.913h-1.306c-.275,0-.344-.069-.412-.344a4.16,4.16,0,0,0-3.779-3.3,4.892,4.892,0,0,0-5.154,2.474,8.933,8.933,0,0,0,.069,9.071,4.964,4.964,0,0,0,5.7,2.268,4.587,4.587,0,0,0,3.23-3.848c.137-.756.137-.756.893-.756h2.062c.275,0,.344.069.275.344a7.419,7.419,0,0,1-6.253,7.009,8.652,8.652,0,0,1-10.239-7.49,12.042,12.042,0,0,1,.756-6.6A8.815,8.815,0,0,1,134.534,100a6.666,6.666,0,0,1,1.718,3.642c.069.275,0,.344-.275.344A3.649,3.649,0,0,0,134.74,103.913ZM235.891,116.42h-3.3a.458.458,0,0,1-.481-.344c-1.168-1.924-2.405-3.779-3.573-5.7-.206-.344-.275-.344-.618-.069a3.251,3.251,0,0,0-1.443,3.367,14.047,14.047,0,0,1,0,2.405c0,.344-.137.412-.412.412H224c-.344,0-.412-.137-.412-.481V98.553c0-.481.137-.618.618-.55a8.376,8.376,0,0,0,1.855,0c.412,0,.481.137.481.481v9.827l.137.069c.206-.275.481-.55.687-.825,1.374-1.443,2.749-2.817,4.192-4.26a.7.7,0,0,1,.481-.275h3.3c0,.206-.206.275-.275.412-1.443,1.374-2.817,2.749-4.329,4.123-.344.275-.344.481-.069.893l4.948,7.421c0,.206.137.344.275.55Zm-33.946-5.91h-4.467c-.344,0-.412.069-.412.412a3.615,3.615,0,0,0,5.085,3.3,2.646,2.646,0,0,0,1.512-1.58.574.574,0,0,1,.618-.412h1.924c.344,0,.412.069.275.412a5.5,5.5,0,0,1-4.879,4.054,6.351,6.351,0,0,1-5.841-1.787,6.918,6.918,0,0,1-1.718-4.26,7.729,7.729,0,0,1,1.374-5.429,6.3,6.3,0,0,1,11.132,2.2,7.359,7.359,0,0,1,.275,2.749c0,.344-.137.412-.412.412C204.969,110.51,203.457,110.51,201.945,110.51Zm-1.443-1.924h3.024c.344,0,.412-.069.344-.412a3.526,3.526,0,0,0-3.3-3.161,3.379,3.379,0,0,0-3.5,3.024c-.069.344,0,.481.412.481,1.031.069,1.993.069,3.024.069Zm-62.189,1.168a10.778,10.778,0,0,1,.344-2.543,6.239,6.239,0,0,1,6.6-4.467c2.405.137,4.4.962,5.566,3.092a7.916,7.916,0,0,1-.069,7.9c-1.306,2.405-3.573,3.161-6.185,3.024C140.65,116.557,138.313,113.877,138.313,109.754Zm2.955,0a5.148,5.148,0,0,0,.893,3.161,3.457,3.457,0,0,0,4.81.962,5.934,5.934,0,0,0,.962-.893,6.111,6.111,0,0,0,0-6.391,3.5,3.5,0,0,0-5.841.069A5.368,5.368,0,0,0,141.268,109.754Zm95.379.069a7.165,7.165,0,0,1,1.718-5.085,6.309,6.309,0,0,1,5.016-2.062,6.544,6.544,0,0,1,5.085,2.062,7.582,7.582,0,0,1,1.649,5.772,7.857,7.857,0,0,1-.481,2.2,6.76,6.76,0,0,1-12.919-2.336c0-.137-.069-.412-.069-.55Zm10.514.137a6.757,6.757,0,0,0-.825-3.367,3.462,3.462,0,0,0-4.81-1.031,3.681,3.681,0,0,0-1.031,1.031,6.173,6.173,0,0,0,0,6.253,3.457,3.457,0,0,0,4.81.962,3.211,3.211,0,0,0,.962-.962A4.747,4.747,0,0,0,247.161,109.96Zm-83.972-5.016a5.761,5.761,0,0,1,3.092-2.13,5.36,5.36,0,0,1,3.436.275,3.992,3.992,0,0,1,2.405,3.848c.069,3.024,0,6.047,0,9.071,0,.344-.069.412-.412.412h-2.062c-.344,0-.481-.069-.481-.481v-7.7a5.857,5.857,0,0,0-.206-1.58c-.412-1.374-1.718-1.924-3.3-1.512a3.225,3.225,0,0,0-2.268,3.23v7.49c0,.412-.069.618-.55.55a9,9,0,0,0-1.924,0c-.344,0-.481-.069-.481-.481v-12.3c0-.481.137-.618.618-.55a15.5,15.5,0,0,0,1.787,0c.344,0,.481.069.412.412a10.147,10.147,0,0,0-.069,1.443Zm56.348,2.611h-.206c-.756.069-1.237,0-1.58-.893-.825-2.062-4.123-2.13-5.5-.206a4.737,4.737,0,0,0-.825,2.2,7.359,7.359,0,0,0,.412,3.848,3.162,3.162,0,0,0,3.5,1.993,2.983,2.983,0,0,0,2.543-2.474c.069-.412.275-.55.687-.481h1.993c.344,0,.412.137.344.412a5.79,5.79,0,0,1-6.459,4.948,6.073,6.073,0,0,1-5.978-5.978,9.081,9.081,0,0,1,.618-4.467,6.086,6.086,0,0,1,6.116-3.642,6.483,6.483,0,0,1,4.4,1.649,5.237,5.237,0,0,1,1.374,2.749q.1.515-.412.412A4.551,4.551,0,0,0,219.537,107.555Zm-62.326,2.268V115.8c0,.55-.137.687-.618.618a7.768,7.768,0,0,0-1.787,0c-.412,0-.55-.069-.55-.55V103.5c0-.344.069-.412.412-.412h2.061c.412,0,.55.069.55.55C157.21,105.7,157.21,107.761,157.21,109.823ZM155.836,98c.412.069,1.031-.206,1.306.069s.069.893.069,1.374c0,.412.206.962-.069,1.237s-.825.069-1.237.069c-.55,0-1.237.206-1.58-.069-.275-.344-.069-1.031-.069-1.512,0-1.168,0-1.168,1.168-1.168Z" transform="translate(-27.708 -7.656)" fill="#8d90a3" fill-rule="evenodd"/></g></svg>