<svg xmlns="http://www.w3.org/2000/svg" width="310.022" height="53.315" viewBox="0 0 310.022 53.315"><g transform="translate(-20.2 -269.9)"><path d="M65.869,301.775a2.831,2.831,0,0,1-2.841.207c-1.033-.62-1.653-2.015-1.653-3.926v-5.838c0-2.79-1.085-4.8-2.945-5.321-3.151-.93-5.528,2.945-6.406,4.391l-5.579,8.937v-11c-.052-2.531-.878-4.03-2.428-4.495-1.033-.31-2.583-.155-4.081,2.118l-12.45,19.941a22.041,22.041,0,0,1-2.531-10.229,21.493,21.493,0,1,1,42.983,0v.1c.1,2.325-.62,4.185-2.066,5.115Zm6.819-5.218h0v-.1A26.515,26.515,0,0,0,46.444,269.9a26.661,26.661,0,0,0,0,53.315,25.788,25.788,0,0,0,17.823-7.129,2.414,2.414,0,0,0-3.255-3.565l-.052.052a21.23,21.23,0,0,1-30.584-1.395L41.588,293.2v8.318c0,3.978,1.55,5.269,2.841,5.631s3.255.1,5.373-3.255l6.148-9.971a5.715,5.715,0,0,1,.568-.827v5.063c0,3.72,1.5,6.716,4.081,8.163a7.507,7.507,0,0,0,7.7-.31C71.293,304.048,72.895,300.639,72.688,296.557Zm36.576-9.092a2.591,2.591,0,0,1,1.188,2.015,2.283,2.283,0,0,1-2.221,2.273,3.918,3.918,0,0,1-.827-.155,8.49,8.49,0,0,0-5.011-1.7c-4.391,0-7.388,3.565-7.388,8.008s3.048,7.956,7.388,7.956a8.024,8.024,0,0,0,5.579-2.273,2.261,2.261,0,0,1,1.292-.413,2.1,2.1,0,0,1,2.118,2.118,2.2,2.2,0,0,1-1.033,1.808,12.263,12.263,0,1,1-7.9-21.7A11.676,11.676,0,0,1,109.265,287.465Zm12.3,5.166a8.58,8.58,0,0,1,8.421,8.679c0,4.753-3.875,8.834-8.421,8.834a8.887,8.887,0,0,1-8.782-8.834A8.753,8.753,0,0,1,121.56,292.631Zm-.052,13.225c2.015,0,3.72-1.911,3.72-4.495s-1.7-4.236-3.72-4.236a3.953,3.953,0,0,0-3.978,4.236A4.247,4.247,0,0,0,121.509,305.857Zm11.366,1.6V295.266a2.382,2.382,0,0,1,2.376-2.428,2.415,2.415,0,0,1,2.376,2.428v12.192a2.415,2.415,0,0,1-2.376,2.428A2.449,2.449,0,0,1,132.874,307.458Zm-.362-19.218a2.78,2.78,0,0,1,2.738-2.841,2.822,2.822,0,0,1,2.79,2.841,2.764,2.764,0,1,1-5.528,0Zm14.207,12.605v6.613a2.377,2.377,0,1,1-4.753,0V294.7a1.834,1.834,0,1,1,3.668,0,6.894,6.894,0,0,1,5.218-2.066c4.753,0,6.871,3.565,6.871,7.646v7.181a2.377,2.377,0,1,1-4.753,0v-6.613c0-2.066-.258-3.823-3.255-3.823-2.118,0-3,1.757-3,3.823Zm26.4,2.531a1.54,1.54,0,0,1-1.24-.62l-5.528-5.993v10.694a2.377,2.377,0,1,1-4.753,0V286.277a1.006,1.006,0,0,1,.878-.62,1.663,1.663,0,0,1,1.033.62l8.834,9.919a1.153,1.153,0,0,0,.775.465,1.269,1.269,0,0,0,.775-.465l8.834-9.919a1.537,1.537,0,0,1,1.033-.62.9.9,0,0,1,.878.62v21.181a2.382,2.382,0,0,1-2.376,2.428,2.415,2.415,0,0,1-2.376-2.428V296.764l-5.528,5.993a1.907,1.907,0,0,1-1.24.62Zm22.834,2.48a4.209,4.209,0,0,0,3.926-4.495,4.05,4.05,0,0,0-3.926-4.288c-2.066,0-3.771,1.757-3.771,4.288C192.182,303.842,193.835,305.857,195.953,305.857Zm5.063,2.17-.1-.568c-.93,1.808-3.875,2.635-5.734,2.635-4.443,0-7.749-4.03-7.749-8.834,0-4.753,3.358-8.679,8.008-8.679a7.433,7.433,0,0,1,5.528,2.635l.1-.568a1.809,1.809,0,0,1,1.808-1.86,1.886,1.886,0,0,1,1.86,1.86v13.329a1.852,1.852,0,0,1-1.86,1.86,1.779,1.779,0,0,1-1.86-1.808Zm16.79-11h-.517c-3,.155-3.565,1.86-3.565,3.823v6.613a2.377,2.377,0,1,1-4.753,0V294.7a1.834,1.834,0,1,1,3.668,0,6.59,6.59,0,0,1,4.65-2.066h.465a2.228,2.228,0,0,1,2.17,2.221,2.172,2.172,0,0,1-2.118,2.17Zm18.34,9.3a2.27,2.27,0,0,1,.362,1.137,2.476,2.476,0,0,1-2.376,2.376,2.933,2.933,0,0,1-2.118-1.343l-5.476-6.354v5.269a2.377,2.377,0,1,1-4.753,0V288.033a2.377,2.377,0,1,1,4.753,0v12.089l5.476-6.044a3.108,3.108,0,0,1,2.066-1.292,2.375,2.375,0,0,1,2.273,2.325,2.033,2.033,0,0,1-.31,1.085l-4.34,4.753,4.443,5.373Zm9.3-9.247c-1.292,0-3.41.672-3.41,2.686h6.871c-.052-2.015-2.221-2.686-3.461-2.686Zm6.2,5.734h-9.609c0,2.841,2.738,3.306,3.926,3.306a7.711,7.711,0,0,0,3.1-.62,2.339,2.339,0,0,1,1.24-.362,1.952,1.952,0,0,1,1.911,1.963,2.093,2.093,0,0,1-1.033,1.7,8.537,8.537,0,0,1-5.166,1.343c-4.8,0-8.782-2.583-8.782-8.628,0-4.753,2.428-8.886,8.111-8.886,4.6,0,8.059,3,8.163,8.318a1.886,1.886,0,0,1-1.86,1.86Zm13.225,7.284h-1.292c-3.616,0-5.734-1.6-5.734-7.233v-5.838H256.6a2.2,2.2,0,0,1,0-4.391h1.24v-4.495a2.382,2.382,0,0,1,2.376-2.428,2.415,2.415,0,0,1,2.376,2.428v4.495h1.963a2.185,2.185,0,0,1,2.118,2.221,2.246,2.246,0,0,1-2.118,2.17H262.6v4.908c0,3.255.155,3.926,1.6,3.926h.672a2.128,2.128,0,0,1,2.118,2.118,2.162,2.162,0,0,1-2.118,2.118Zm22.989-22.628a2.591,2.591,0,0,1,1.188,2.015,2.283,2.283,0,0,1-2.221,2.273A3.918,3.918,0,0,1,286,291.6a8.49,8.49,0,0,0-5.011-1.7c-4.391,0-7.388,3.565-7.388,8.008s3.048,7.956,7.388,7.956a8.024,8.024,0,0,0,5.579-2.273,2.261,2.261,0,0,1,1.292-.413,2.1,2.1,0,0,1,2.118,2.118,2.2,2.2,0,0,1-1.033,1.808,12.263,12.263,0,1,1-7.9-21.7,11.564,11.564,0,0,1,6.819,2.066ZM299.9,305.857a4.209,4.209,0,0,0,3.926-4.495,4.05,4.05,0,0,0-3.926-4.288c-2.118,0-3.771,1.757-3.771,4.288,0,2.48,1.7,4.495,3.771,4.495Zm5.063,2.17-.1-.568c-.93,1.808-3.875,2.635-5.734,2.635-4.443,0-7.749-4.03-7.749-8.834,0-4.753,3.358-8.679,8.008-8.679a7.433,7.433,0,0,1,5.528,2.635l.1-.568a1.809,1.809,0,0,1,1.808-1.86,1.886,1.886,0,0,1,1.86,1.86v13.329a1.852,1.852,0,0,1-1.86,1.86A1.779,1.779,0,0,1,304.959,308.026Zm16.687-2.17c2.118,0,3.771-2.015,3.771-4.495,0-2.583-1.7-4.288-3.771-4.288a4.019,4.019,0,0,0-3.926,4.288A4.209,4.209,0,0,0,321.646,305.857ZM317.72,308.7v6.044a2.377,2.377,0,1,1-4.753,0V294.7a1.852,1.852,0,0,1,1.86-1.86,1.9,1.9,0,0,1,1.808,2.066,7.641,7.641,0,0,1,5.579-2.273c4.6,0,8.008,3.875,8.008,8.679,0,4.753-3.255,8.834-7.749,8.834a9.113,9.113,0,0,1-4.753-1.447Z" fill="#e6e9f0"/></g></svg>