<svg xmlns="http://www.w3.org/2000/svg" width="189.801" height="189.801" viewBox="0 0 189.801 189.801">
  <g id="Gecko" transform="translate(-81.599 -186.199)">
    <path id="Path_63" data-name="Path 63" d="M271.4,280.7a94.9,94.9,0,1,1-95.3-94.5A94.916,94.916,0,0,1,271.4,280.7Z" fill="#8dc63f"/>
    <path id="_Clipping_Path_" d="M264.2,280.7a87.751,87.751,0,1,1-88.1-87.4,87.853,87.853,0,0,1,88.1,87.4Z" fill="#f9e988"/>
    <path id="_Path_" d="M178.1,199a47.977,47.977,0,0,1,16.9,0,51.017,51.017,0,0,1,16.1,5.4c5,2.8,9.3,6.5,13.6,10s8.6,7.1,12.7,11a63.834,63.834,0,0,1,10.8,13,79.951,79.951,0,0,1,7.6,15.2,68.948,68.948,0,0,1,3.1,33.4h-.6a156.109,156.109,0,0,0-8.2-31.4,126.562,126.562,0,0,0-6.4-14.6,148.723,148.723,0,0,0-8.5-13.7,48.721,48.721,0,0,0-11.5-11.6c-4.4-3.2-9.6-5.2-14.5-7.2a150.015,150.015,0,0,0-15.1-5.4c-5.2-1.5-10.4-2.6-15.9-3.7Z" fill="#fff"/>
    <path id="Path_64" data-name="Path 64" d="M221,249.7c-6.4-1.9-13-4.5-19.7-7.1-.4-1.7-1.9-3.8-4.9-6.3-4.4-3.8-12.6-3.7-19.7-2-7.8-1.8-15.6-2.5-23-.7-60.7,16.7-26.2,57.5-48.5,98.5,3.2,6.7,37.3,46,86.8,35.4,0,0-16.9-40.6,21.2-60.1C244.2,291.5,266.6,262.2,221,249.7Z" fill="#8bc53f"/>
    <path id="Path_65" data-name="Path 65" d="M228.5,276.4a3.65,3.65,0,1,1-3.7-3.6h0a3.607,3.607,0,0,1,3.7,3.6Z" fill="#fff"/>
    <path id="Path_66" data-name="Path 66" d="M176.8,234.3c4.4.3,20.4,5.5,24.5,8.3C197.9,232.6,186.3,231.3,176.8,234.3Z" fill="#009345"/>
    <path id="Path_67" data-name="Path 67" d="M181,259.5a17,17,0,1,1-17-17h0A16.986,16.986,0,0,1,181,259.5Z" fill="#fff"/>
    <path id="Path_68" data-name="Path 68" d="M176,259.6a12.014,12.014,0,0,1-11.9,12,11.9,11.9,0,1,1,0-23.8h0A11.779,11.779,0,0,1,176,259.6Z" fill="#58595b"/>
    <path id="Path_69" data-name="Path 69" d="M242.2,283.9c-13.8,9.7-29.4,17-51.6,17-10.4,0-12.5-11-19.3-5.6-3.6,2.8-16,9-25.9,8.6s-26-6.3-30.5-27.4c-1.8,21.2-2.7,36.7-10.6,54.6,15.8,25.3,53.5,44.9,87.8,36.5-3.7-25.7,18.8-50.8,31.4-63.7,4.7-5,14-13,18.7-20Z" fill="#8bc53f"/>
    <path id="Path_70" data-name="Path 70" d="M241.7,284.5a61.725,61.725,0,0,1-14.5,9.3,85.8,85.8,0,0,1-16.3,5.9,50.97,50.97,0,0,1-17.4,2c-5.9-.5-12-2.6-15.9-7l.2-.2c4.8,3.1,10.4,4.2,15.9,4.4a72.046,72.046,0,0,0,16.7-1.4,89.454,89.454,0,0,0,16.2-5,61.938,61.938,0,0,0,14.9-8.2Z" fill="#58595b"/>
  </g>
</svg>
