<svg xmlns="http://www.w3.org/2000/svg" width="67.046" height="52.542" viewBox="0 0 67.046 52.542"><g transform="translate(0.02)"><path d="M10.873,234.741a2.194,2.194,0,0,1,1.551-.641h53.5a1.1,1.1,0,0,1,.775,1.871L56.133,246.54a2.193,2.193,0,0,1-1.551.641H1.079A1.1,1.1,0,0,1,.3,245.31Z" transform="translate(0 -194.638)" fill="#d8dbe2"/><path d="M10.873.641A2.254,2.254,0,0,1,12.424,0h53.5A1.1,1.1,0,0,1,66.7,1.871L56.133,12.44a2.194,2.194,0,0,1-1.551.641H1.079A1.1,1.1,0,0,1,.3,11.21Z" transform="translate(0)" fill="#d8dbe2"/><path d="M56.133,116.941a2.194,2.194,0,0,0-1.551-.641H1.079A1.1,1.1,0,0,0,.3,118.171L10.873,128.74a2.194,2.194,0,0,0,1.551.641h53.5a1.1,1.1,0,0,0,.775-1.871Z" transform="translate(0 -96.695)" fill="#d8dbe2"/></g></svg>