<svg xmlns="http://www.w3.org/2000/svg" width="448" height="448" viewBox="0 0 448 448"><path d="M400,32H48A48.012,48.012,0,0,0,0,80V432a48.012,48.012,0,0,0,48,48H400a48.012,48.012,0,0,0,48-48V80A48.012,48.012,0,0,0,400,32ZM351.1,190.8c.2,2.8.2,5.7.2,8.5,0,86.7-66,186.6-186.6,186.6A185.74,185.74,0,0,1,64,356.5a138.168,138.168,0,0,0,15.8.8,131.494,131.494,0,0,0,81.4-28,65.672,65.672,0,0,1-61.3-45.5c10.1,1.5,19.2,1.5,29.6-1.2A65.591,65.591,0,0,1,77,218.2v-.8a65.542,65.542,0,0,0,29.6,8.3,65.447,65.447,0,0,1-29.2-54.6A64.766,64.766,0,0,1,86.3,138a186.224,186.224,0,0,0,135.2,68.6c-9.3-44.5,24-80.6,64-80.6a65.349,65.349,0,0,1,47.9,20.7A128.517,128.517,0,0,0,375,130.9,65.414,65.414,0,0,1,346.2,167,130.516,130.516,0,0,0,384,156.8,138.049,138.049,0,0,1,351.1,190.8Z" transform="translate(0 -32)" fill="#e6e9f0"/></svg>